if (_typeface_js && _typeface_js.loadFace) _typeface_js.loadFace({"glyphs":{"S":{"x_min":58.359375,"x_max":871,"ha":914,"o":"m 63 300 l 525 300 q 567 314 552 301 q 582 343 582 327 q 568 364 582 354 q 527 374 555 374 l 348 374 q 222 401 277 374 q 131 471 168 428 q 77 572 95 515 q 58 687 58 629 q 76 796 58 745 q 130 885 94 847 q 220 945 166 923 q 348 968 275 968 l 836 968 l 836 707 l 348 707 q 326 699 333 707 q 319 681 319 691 q 325 662 319 671 q 343 649 331 653 l 527 649 q 704 623 637 649 q 809 557 772 598 q 858 459 845 515 q 871 343 871 404 q 849 222 871 282 q 784 117 827 163 q 677 41 741 70 q 529 11 613 12 l 63 11 l 63 300 "},"/":{"x_min":80.5625,"x_max":531.984375,"ha":581,"o":"m 270 0 l 80 0 l 341 972 l 531 972 l 270 0 "},"K":{"x_min":53,"x_max":871.59375,"ha":926,"o":"m 341 187 l 341 0 l 53 0 l 53 972 l 341 972 l 341 778 l 524 972 l 867 972 l 396 476 l 871 0 l 528 0 l 341 187 "},"7":{"x_min":68.0625,"x_max":752.84375,"ha":814,"o":"m 447 764 l 68 764 l 68 972 l 752 972 l 512 0 l 252 0 l 447 764 "},"d":{"x_min":79,"x_max":978,"ha":1043,"o":"m 79 972 l 493 971 q 682 932 593 971 q 836 828 770 894 q 939 673 901 762 q 978 483 978 584 q 939 295 978 383 q 836 141 901 206 q 682 37 770 75 q 493 0 593 0 l 79 0 l 79 972 m 360 693 l 360 275 l 479 275 q 560 291 522 275 q 626 336 599 308 q 671 402 654 363 q 688 483 688 440 q 671 564 688 526 q 626 631 654 602 q 560 676 599 659 q 479 693 522 693 l 360 693 "},",":{"x_min":34.71875,"x_max":368.078125,"ha":428,"o":"m 123 219 l 368 219 l 231 -151 l 34 -151 l 123 219 "},"Y":{"x_min":27.359375,"x_max":1049.6875,"ha":1090,"o":"m 401 477 l 27 972 l 355 972 l 538 684 l 721 972 l 1049 972 l 658 474 l 658 0 l 401 0 l 401 477 "},"E":{"x_min":68,"x_max":699.8125,"ha":774,"o":"m 347 693 l 347 625 l 697 625 l 697 347 l 347 347 l 347 275 l 699 275 l 699 0 l 68 1 l 68 972 l 697 971 l 697 693 l 347 693 "},"y":{"x_min":27.359375,"x_max":1049.6875,"ha":1090,"o":"m 401 477 l 27 972 l 355 972 l 538 684 l 721 972 l 1049 972 l 658 474 l 658 0 l 401 0 l 401 477 "},"\"":{"x_min":56,"x_max":629,"ha":683,"o":"m 56 975 l 302 975 l 302 594 l 56 594 l 56 975 m 383 975 l 629 975 l 629 594 l 383 594 l 383 975 "},"‹":{"x_min":40.28125,"x_max":430.59375,"ha":489,"o":"m 200 651 l 430 651 l 283 368 l 427 85 l 198 85 l 40 368 l 200 651 "},"„":{"x_min":55.5625,"x_max":780.625,"ha":838,"o":"m 301 -181 l 55 -181 l 213 200 l 459 200 l 301 -181 m 622 -181 l 376 -181 l 534 200 l 780 200 l 622 -181 "},"g":{"x_min":53,"x_max":825,"ha":874,"o":"m 537 0 q 348 37 437 0 q 194 141 259 75 q 91 295 129 206 q 53 483 53 383 q 91 673 53 584 q 194 828 129 762 q 349 932 260 894 q 538 971 438 971 l 670 971 l 670 693 l 552 693 q 470 676 508 693 q 404 631 432 659 q 359 564 376 602 q 343 483 343 526 q 359 402 343 440 q 404 336 376 363 q 472 291 433 308 q 556 275 511 275 l 556 486 l 825 486 l 825 0 l 537 0 "},"–":{"x_min":68.0625,"x_max":712.5625,"ha":781,"o":"m 712 643 l 712 453 l 68 453 l 68 643 l 712 643 "},"ƒ":{"x_min":54.171875,"x_max":1005.640625,"ha":1060,"o":"m 1005 1056 l 979 896 l 844 896 q 769 877 793 896 q 737 812 745 858 l 729 760 l 936 760 l 905 586 l 698 586 l 591 -45 q 473 -231 569 -173 q 240 -289 377 -289 l 54 -289 l 80 -129 l 215 -129 q 288 -110 265 -129 q 320 -45 312 -91 l 427 586 l 306 586 l 337 760 l 458 760 l 466 812 q 570 998 488 940 q 791 1056 651 1056 l 1005 1056 "},"e":{"x_min":68,"x_max":699.8125,"ha":774,"o":"m 347 693 l 347 625 l 697 625 l 697 347 l 347 347 l 347 275 l 699 275 l 699 0 l 68 1 l 68 972 l 697 971 l 697 693 l 347 693 "},"J":{"x_min":-155.34375,"x_max":369.390625,"ha":424,"o":"m 369 -4 q 334 -193 369 -104 q 231 -347 298 -282 q 66 -450 164 -412 q -155 -489 -31 -489 l -155 -199 q -47 -182 -88 -199 q 15 -137 -6 -165 q 45 -71 37 -110 q 53 9 53 -33 l 53 972 l 368 972 l 369 -4 "},"|":{"x_min":81,"x_max":271,"ha":343,"o":"m 81 972 l 271 972 l 271 -292 l 81 -292 l 81 972 "},"^":{"x_min":45.84375,"x_max":648.65625,"ha":697,"o":"m 265 976 l 429 976 l 648 639 l 527 639 l 347 818 l 166 639 l 45 639 l 265 976 "},"q":{"x_min":38,"x_max":1173.0625,"ha":1099,"o":"m 628 5 q 611 4 622 5 q 586 4 599 4 q 562 4 574 4 q 545 4 550 4 q 348 42 440 4 q 187 145 256 80 q 78 299 118 210 q 38 488 38 388 q 78 676 38 588 q 187 830 118 765 q 348 933 256 895 q 545 972 440 972 q 743 933 650 972 q 905 830 836 895 q 1014 676 974 765 q 1055 488 1055 588 q 1012 254 1055 359 q 866 81 970 148 l 1173 -214 l 892 -214 l 628 5 m 335 489 q 351 405 335 444 q 397 337 368 366 q 465 291 426 308 q 548 275 504 275 q 630 291 593 275 q 693 337 667 308 q 734 405 719 366 q 749 489 749 444 q 734 572 749 533 q 693 640 719 611 q 630 686 667 669 q 548 703 593 703 q 465 686 504 703 q 397 640 426 669 q 351 572 368 611 q 335 489 335 533 "},"b":{"x_min":78,"x_max":805,"ha":875,"o":"m 429 967 q 563 954 498 967 q 678 909 629 941 q 757 824 727 878 q 786 690 787 770 q 772 620 786 651 q 739 566 759 588 q 695 531 719 544 q 645 519 670 519 q 765 463 726 519 q 805 319 805 408 q 790 206 805 254 q 751 125 775 159 q 696 69 727 91 q 632 33 664 47 q 460 4 556 1 l 78 4 l 78 967 l 429 967 m 367 337 l 367 223 l 475 223 q 505 229 491 224 q 526 245 516 235 q 536 275 536 256 q 497 323 536 311 q 398 337 458 334 l 390 337 l 385 337 l 367 337 m 367 734 l 367 626 l 386 626 q 405 625 396 626 q 425 625 415 625 q 453 627 437 625 q 485 637 469 630 q 510 655 500 644 q 521 686 521 666 q 510 714 521 704 q 483 728 498 724 q 453 733 468 732 q 429 734 437 734 l 367 734 "},"D":{"x_min":79,"x_max":978,"ha":1043,"o":"m 79 972 l 493 971 q 682 932 593 971 q 836 828 770 894 q 939 673 901 762 q 978 483 978 584 q 939 295 978 383 q 836 141 901 206 q 682 37 770 75 q 493 0 593 0 l 79 0 l 79 972 m 360 693 l 360 275 l 479 275 q 560 291 522 275 q 626 336 599 308 q 671 402 654 363 q 688 483 688 440 q 671 564 688 526 q 626 631 654 602 q 560 676 599 659 q 479 693 522 693 l 360 693 "},"z":{"x_min":61.109375,"x_max":1043.140625,"ha":1115,"o":"m 550 739 l 61 739 l 61 972 l 1043 972 l 598 257 l 1040 257 l 1040 0 l 75 0 l 550 739 "},"w":{"x_min":37.5,"x_max":1443.171875,"ha":1489,"o":"m 37 972 l 365 972 l 533 626 l 748 967 l 944 626 l 1111 967 l 1443 966 l 988 0 l 740 417 l 495 0 l 37 972 "},"$":{"x_min":58.640625,"x_max":870.921875,"ha":914,"o":"m 64 300 l 367 300 l 367 373 l 348 373 q 223 400 278 373 q 132 471 168 427 q 77 571 96 514 q 58 687 58 628 q 76 796 58 745 q 130 885 94 847 q 221 945 166 923 q 348 968 275 968 l 367 968 l 367 1086 l 557 1086 l 557 968 l 836 968 l 836 707 l 557 707 l 557 647 q 718 617 657 642 q 813 549 779 591 q 859 454 847 508 q 870 342 870 401 q 850 227 870 284 q 791 124 830 170 q 693 48 751 78 q 557 12 634 17 l 557 -178 l 367 -178 l 367 11 l 64 11 l 64 300 m 348 707 q 326 699 333 707 q 319 681 319 691 q 326 661 319 670 q 343 648 332 652 l 367 648 l 367 707 l 348 707 m 582 342 q 557 369 582 360 l 557 306 q 582 342 582 319 "},"™":{"x_min":68,"x_max":918.21875,"ha":983,"o":"m 150 849 l 68 849 l 68 972 l 346 972 l 346 848 l 264 848 l 264 543 l 150 543 l 150 849 m 501 972 l 608 787 l 718 972 l 918 546 l 772 546 l 698 696 l 612 546 l 518 696 l 443 543 l 298 543 l 501 972 "},"\\":{"x_min":80.5625,"x_max":531.984375,"ha":581,"o":"m 80 972 l 270 972 l 531 0 l 341 0 l 80 972 "},"’":{"x_min":55.5625,"x_max":459.765625,"ha":515,"o":"m 301 594 l 55 594 l 213 975 l 459 975 l 301 594 "},"~":{"x_min":86.125,"x_max":955.625,"ha":1036,"o":"m 955 632 l 955 411 q 823 333 883 357 q 697 310 763 310 q 613 324 663 310 q 511 356 563 339 q 409 388 458 373 q 329 403 361 403 q 211 376 269 403 q 86 294 152 349 l 86 515 q 218 593 158 569 q 344 617 277 617 q 427 602 377 617 q 530 570 477 587 q 631 538 583 553 q 712 524 680 524 q 828 549 770 524 q 955 632 886 575 "},"-":{"x_min":68.0625,"x_max":443.09375,"ha":510,"o":"m 443 643 l 443 453 l 68 453 l 68 643 l 443 643 "},"Q":{"x_min":38,"x_max":1173.0625,"ha":1099,"o":"m 628 5 q 611 4 622 5 q 586 4 599 4 q 562 4 574 4 q 545 4 550 4 q 348 42 440 4 q 187 145 256 80 q 78 299 118 210 q 38 488 38 388 q 78 676 38 588 q 187 830 118 765 q 348 933 256 895 q 545 972 440 972 q 743 933 650 972 q 905 830 836 895 q 1014 676 974 765 q 1055 488 1055 588 q 1012 254 1055 359 q 866 81 970 148 l 1173 -214 l 892 -214 l 628 5 m 335 489 q 351 405 335 444 q 397 337 368 366 q 465 291 426 308 q 548 275 504 275 q 630 291 593 275 q 693 337 667 308 q 734 405 719 366 q 749 489 749 444 q 734 572 749 533 q 693 640 719 611 q 630 686 667 669 q 548 703 593 703 q 465 686 504 703 q 397 640 426 669 q 351 572 368 611 q 335 489 335 533 "},"M":{"x_min":37.5,"x_max":1443.171875,"ha":1489,"o":"m 495 972 l 740 554 l 988 972 l 1443 6 l 1111 6 l 944 345 l 748 6 l 533 345 l 365 0 l 37 0 l 495 972 "},"C":{"x_min":53,"x_max":672.203125,"ha":725,"o":"m 537 0 q 348 37 437 0 q 194 141 259 75 q 91 295 129 206 q 53 483 53 383 q 91 673 53 584 q 194 828 129 762 q 348 932 259 894 q 537 971 437 971 l 669 971 l 669 693 l 551 693 q 470 676 508 693 q 404 631 431 659 q 359 564 376 602 q 343 483 343 526 q 359 402 343 440 q 404 336 376 363 q 470 291 431 308 q 551 275 508 275 l 672 275 l 672 0 l 537 0 "},"[":{"x_min":78,"x_max":475.5625,"ha":525,"o":"m 78 1049 l 475 1049 l 475 856 l 320 856 l 320 10 l 475 10 l 475 -183 l 78 -183 l 78 1049 "},"L":{"x_min":68,"x_max":699.8125,"ha":774,"o":"m 347 974 l 347 275 l 699 275 l 699 0 l 68 1 l 68 972 l 347 974 "},"!":{"x_min":87,"x_max":365,"ha":423,"o":"m 112 972 l 343 972 l 343 342 l 112 342 l 112 972 m 87 140 q 127 238 87 198 q 226 279 167 279 q 324 238 284 279 q 365 140 365 198 q 324 41 365 81 q 226 1 284 1 q 127 41 167 1 q 87 140 87 81 "}," ":{"x_min":0,"x_max":0,"ha":474},"{":{"x_min":102.765625,"x_max":675.28125,"ha":782,"o":"m 675 1001 l 675 837 q 661 838 671 837 q 647 839 651 839 q 592 833 614 839 q 557 814 571 827 q 539 777 544 801 q 535 715 535 752 l 535 552 q 527 471 535 504 q 503 416 519 438 q 458 381 486 394 q 391 359 430 367 q 459 338 432 351 q 504 303 487 326 q 528 249 521 281 q 535 167 535 216 l 535 4 q 539 -56 535 -33 q 557 -94 544 -80 q 591 -113 569 -108 q 646 -118 612 -118 q 660 -117 650 -118 q 675 -116 671 -116 l 675 -281 q 652 -281 671 -281 q 612 -281 633 -281 q 572 -282 590 -282 q 550 -282 554 -282 q 427 -276 479 -282 q 341 -249 375 -270 q 290 -182 306 -227 q 275 -58 275 -137 l 275 115 q 241 242 275 205 q 127 279 208 279 q 115 278 125 279 q 102 277 106 277 l 102 441 q 115 440 106 441 q 127 440 123 440 q 240 476 206 440 q 275 605 275 513 l 275 777 q 290 900 275 855 q 340 968 306 946 q 425 997 373 991 q 551 1003 478 1003 q 573 1003 555 1003 q 612 1002 591 1003 q 652 1001 633 1001 q 675 1001 671 1001 "},"X":{"x_min":51.390625,"x_max":1091.75,"ha":1174,"o":"m 365 487 l 51 974 l 461 974 l 569 805 l 676 974 l 1082 974 l 773 490 l 1091 0 l 682 0 l 570 170 l 461 0 l 55 0 l 365 487 "},"P":{"x_min":78,"x_max":786.0625,"ha":875,"o":"m 429 967 q 563 954 498 967 q 678 910 629 942 q 757 824 727 878 q 786 690 787 771 q 765 607 786 650 q 713 528 744 564 q 645 471 681 493 q 575 449 608 449 l 367 449 l 367 4 l 78 4 l 78 967 l 429 967 m 367 734 l 367 626 l 386 626 q 405 625 396 626 q 425 625 415 625 q 453 627 437 625 q 484 637 469 630 q 510 655 500 644 q 521 686 521 666 q 509 714 521 704 q 483 728 498 724 q 453 733 468 732 q 429 734 437 734 l 367 734 "},"%":{"x_min":37,"x_max":1022,"ha":1098,"o":"m 37 757 q 55 840 37 801 q 103 909 73 880 q 175 955 134 938 q 262 972 216 972 q 351 955 309 972 q 423 909 393 938 q 471 840 454 880 q 489 757 489 801 q 471 673 489 712 q 423 604 454 633 q 351 558 393 575 q 262 542 309 542 q 175 558 216 542 q 103 604 134 575 q 55 673 73 633 q 37 757 37 712 m 169 757 q 196 690 169 717 q 264 663 224 663 q 328 690 303 663 q 354 757 354 717 q 328 825 354 797 q 264 853 303 853 q 196 825 224 853 q 169 757 169 797 m 571 218 q 589 301 571 262 q 637 370 607 341 q 709 416 668 399 q 795 433 750 433 q 884 416 842 433 q 956 370 926 399 q 1004 301 987 341 q 1022 218 1022 262 q 1004 134 1022 173 q 956 65 987 94 q 884 19 926 36 q 795 3 842 3 q 709 19 750 3 q 637 65 668 36 q 589 134 607 94 q 571 218 571 173 m 703 218 q 730 151 703 178 q 798 124 758 124 q 862 151 837 124 q 887 218 887 178 q 862 286 887 258 q 798 314 837 314 q 730 286 758 314 q 703 218 703 258 m 727 972 l 927 972 l 339 0 l 139 0 l 727 972 "},"#":{"x_min":15.28125,"x_max":1052.859375,"ha":1068,"o":"m 479 571 l 423 414 l 590 414 l 645 571 l 479 571 m 463 995 l 633 995 l 538 728 l 698 728 l 794 995 l 963 995 l 869 728 l 1052 728 l 994 571 l 812 571 l 758 415 l 945 415 l 888 258 l 702 258 l 607 -8 l 437 -8 l 531 258 l 372 258 l 276 -8 l 106 -8 l 201 258 l 15 258 l 73 415 l 256 415 l 312 571 l 120 571 l 179 728 l 368 728 l 463 995 "},"_":{"x_min":0,"x_max":694.5,"ha":695,"o":"m 694 -199 l 694 -328 l 0 -328 l 0 -199 l 694 -199 "},"+":{"x_min":90.578125,"x_max":903.015625,"ha":985,"o":"m 417 828 l 578 828 l 578 493 l 903 493 l 903 336 l 578 336 l 578 0 l 417 0 l 417 336 l 90 336 l 90 493 l 417 493 l 417 828 "},"‚":{"x_min":55.5625,"x_max":459.765625,"ha":493,"o":"m 301 -181 l 55 -181 l 213 200 l 459 200 l 301 -181 "},")":{"x_min":94.9375,"x_max":571,"ha":661,"o":"m 344 1049 q 571 432 571 772 q 344 -183 571 93 l 94 -183 q 240 116 192 -35 q 288 432 288 268 q 94 1049 288 755 l 344 1049 l 344 1049 "},"'":{"x_min":55,"x_max":301,"ha":357,"o":"m 55 975 l 301 975 l 301 594 l 55 594 l 55 975 "},"}":{"x_min":102.703125,"x_max":675.234375,"ha":782,"o":"m 102 1001 q 125 1001 106 1001 q 165 1002 144 1001 q 204 1003 186 1003 q 226 1003 222 1003 q 351 997 298 1003 q 437 968 404 991 q 487 900 471 946 q 503 777 503 855 l 503 605 q 537 476 503 513 q 650 440 571 440 q 662 440 654 440 q 675 441 671 441 l 675 277 q 662 278 671 277 q 650 279 653 279 q 536 242 569 279 q 503 115 503 205 l 503 -58 q 487 -182 503 -137 q 436 -249 471 -227 q 350 -276 402 -270 q 227 -282 298 -282 q 205 -282 223 -282 q 165 -281 187 -282 q 125 -281 144 -281 q 102 -281 106 -281 l 102 -116 q 117 -117 106 -116 q 131 -118 127 -118 q 186 -113 165 -118 q 220 -94 208 -108 q 238 -56 233 -80 q 243 4 243 -33 l 243 167 q 249 249 243 216 q 273 303 256 281 q 318 338 290 326 q 386 359 345 351 q 318 381 345 367 q 274 416 291 394 q 250 471 258 438 q 243 552 243 504 l 243 715 q 238 777 243 752 q 220 814 233 801 q 185 833 206 827 q 130 839 163 839 q 116 838 126 839 q 102 837 106 837 l 102 1001 l 102 1001 "},"‰":{"x_min":37,"x_max":1554,"ha":1625,"o":"m 37 757 q 55 840 37 801 q 103 909 73 880 q 175 955 134 938 q 262 972 216 972 q 351 955 309 972 q 423 909 393 938 q 471 840 454 880 q 489 757 489 801 q 471 673 489 712 q 423 604 454 633 q 351 558 393 575 q 262 542 309 542 q 175 558 216 542 q 103 604 134 575 q 55 673 73 633 q 37 757 37 712 m 169 757 q 196 690 169 717 q 264 663 224 663 q 328 690 303 663 q 354 757 354 717 q 328 825 354 797 q 264 853 303 853 q 196 825 224 853 q 169 757 169 797 m 571 218 q 589 301 571 262 q 637 370 607 341 q 709 416 668 399 q 795 433 750 433 q 884 416 842 433 q 956 370 926 399 q 1004 301 987 341 q 1022 218 1022 262 q 1004 134 1022 173 q 956 65 987 94 q 884 19 926 36 q 795 3 842 3 q 709 19 750 3 q 637 65 668 36 q 589 134 607 94 q 571 218 571 173 m 703 218 q 730 151 703 178 q 798 124 758 124 q 862 151 837 124 q 887 218 887 178 q 862 286 887 258 q 798 314 837 314 q 730 286 758 314 q 703 218 703 258 m 727 972 l 927 972 l 339 0 l 139 0 l 727 972 m 1103 218 q 1121 301 1103 262 q 1169 370 1139 341 q 1241 416 1200 399 q 1327 433 1282 433 q 1416 416 1374 433 q 1488 370 1458 399 q 1536 301 1519 341 q 1554 218 1554 262 q 1536 134 1554 173 q 1488 65 1519 94 q 1416 19 1458 36 q 1327 3 1374 3 q 1241 19 1282 3 q 1169 65 1200 36 q 1121 134 1139 94 q 1103 218 1103 173 m 1235 218 q 1262 151 1235 178 q 1330 124 1290 124 q 1394 151 1369 124 q 1419 218 1419 178 q 1394 286 1419 258 q 1330 314 1369 314 q 1262 286 1290 314 q 1235 218 1235 258 "},"a":{"x_min":27.78125,"x_max":1050.078125,"ha":1093,"o":"m 541 972 l 1050 0 l 722 0 l 538 342 l 355 0 l 27 0 l 541 972 "},"T":{"x_min":68.265625,"x_max":697.734375,"ha":774,"o":"m 253 694 l 68 694 l 68 972 l 697 972 l 697 693 l 513 693 l 513 0 l 253 0 l 253 694 "},"—":{"x_min":68.0625,"x_max":1158.421875,"ha":1231,"o":"m 1158 643 l 1158 453 l 68 453 l 68 643 l 1158 643 "},"=":{"x_min":83.34375,"x_max":895.90625,"ha":985,"o":"m 83 341 l 895 341 l 895 185 l 83 185 l 83 341 m 83 645 l 895 645 l 895 488 l 83 488 l 83 645 "},"N":{"x_min":82.21875,"x_max":849.390625,"ha":941,"o":"m 82 972 l 551 572 l 551 972 l 849 975 l 848 1 l 409 345 l 413 0 l 85 0 l 82 972 "},"2":{"x_min":68,"x_max":769.546875,"ha":886,"o":"m 78 636 q 105 767 78 705 q 178 874 132 829 q 287 947 225 920 q 419 975 348 975 q 548 953 487 975 q 654 892 608 931 q 726 798 700 852 q 753 679 753 744 q 734 573 753 628 q 676 459 716 517 q 572 339 636 401 q 416 219 508 278 l 769 219 l 769 0 l 68 0 q 161 155 109 83 q 264 290 212 227 q 365 404 316 352 q 451 499 414 456 q 512 578 489 542 q 535 641 535 613 q 526 688 535 665 q 502 731 518 712 q 465 760 486 749 q 419 772 444 772 q 323 732 363 772 q 284 636 284 692 l 78 636 "},"j":{"x_min":-155.34375,"x_max":369.390625,"ha":424,"o":"m 369 -4 q 334 -193 369 -104 q 231 -347 298 -282 q 66 -450 164 -412 q -155 -489 -31 -489 l -155 -199 q -47 -182 -88 -199 q 15 -137 -6 -165 q 45 -71 37 -110 q 53 9 53 -33 l 53 972 l 368 972 l 369 -4 "},"Z":{"x_min":61.109375,"x_max":1043.140625,"ha":1115,"o":"m 550 739 l 61 739 l 61 972 l 1043 972 l 598 257 l 1040 257 l 1040 0 l 75 0 l 550 739 "},"u":{"x_min":69,"x_max":953.390625,"ha":1158,"o":"m 952 506 q 920 310 952 402 q 831 151 889 219 q 690 43 774 83 q 502 4 607 4 q 317 43 398 4 q 181 151 237 83 q 97 310 126 219 q 69 506 69 402 l 69 972 l 376 972 l 376 503 q 384 382 376 430 q 409 306 392 334 q 449 265 426 277 q 501 254 472 254 q 558 265 531 254 q 603 306 584 277 q 632 382 622 334 q 642 503 643 430 l 644 972 l 953 972 l 952 506 "},"1":{"x_min":53,"x_max":368,"ha":424,"o":"m 53 972 l 368 972 l 368 0 l 53 0 l 53 972 "},"›":{"x_min":40.28125,"x_max":430.59375,"ha":489,"o":"m 430 368 l 272 85 l 43 85 l 187 368 l 40 651 l 270 651 l 430 368 "},"k":{"x_min":53,"x_max":871.59375,"ha":926,"o":"m 341 187 l 341 0 l 53 0 l 53 972 l 341 972 l 341 778 l 524 972 l 867 972 l 396 476 l 871 0 l 528 0 l 341 187 "},"€":{"x_min":53.984375,"x_max":953.9375,"ha":1021,"o":"m 953 55 q 672 -20 825 -20 q 373 67 493 -20 q 201 324 252 155 l 53 324 l 113 456 l 180 456 q 179 476 179 465 q 179 505 179 486 q 179 536 179 525 q 180 557 179 547 l 53 557 l 113 689 l 201 689 q 374 944 253 857 q 673 1031 494 1031 q 953 955 826 1031 l 953 746 q 706 853 842 853 q 469 689 530 853 l 834 689 l 776 557 l 441 557 q 440 533 440 545 q 440 497 440 521 q 440 478 440 489 q 441 456 440 467 l 731 456 l 671 324 l 468 324 q 706 158 535 158 q 953 264 841 158 l 953 55 "},"<":{"x_min":45.84375,"x_max":844.515625,"ha":906,"o":"m 844 824 l 844 651 l 265 414 l 844 178 l 844 6 l 45 335 l 45 493 l 844 824 "},"t":{"x_min":68.265625,"x_max":697.734375,"ha":774,"o":"m 253 694 l 68 694 l 68 972 l 697 972 l 697 693 l 513 693 l 513 0 l 253 0 l 253 694 "},"W":{"x_min":37.5,"x_max":1443.171875,"ha":1489,"o":"m 37 972 l 365 972 l 533 626 l 748 967 l 944 626 l 1111 967 l 1443 966 l 988 0 l 740 417 l 495 0 l 37 972 "},"v":{"x_min":27.78125,"x_max":1050.078125,"ha":1090,"o":"m 27 972 l 355 972 l 538 629 l 722 972 l 1050 972 l 541 0 l 27 972 "},">":{"x_min":56.953125,"x_max":855.625,"ha":917,"o":"m 56 824 l 855 493 l 855 335 l 56 6 l 56 178 l 636 414 l 56 651 l 56 824 "},"s":{"x_min":58.359375,"x_max":871,"ha":914,"o":"m 63 300 l 525 300 q 567 314 552 301 q 582 343 582 327 q 568 364 582 354 q 527 374 555 374 l 348 374 q 222 401 277 374 q 131 471 168 428 q 77 572 95 515 q 58 687 58 629 q 76 796 58 745 q 130 885 94 847 q 220 945 166 923 q 348 968 275 968 l 836 968 l 836 707 l 348 707 q 326 699 333 707 q 319 681 319 691 q 325 662 319 671 q 343 649 331 653 l 527 649 q 704 623 637 649 q 809 557 772 598 q 858 459 845 515 q 871 343 871 404 q 849 222 871 282 q 784 117 827 163 q 677 41 741 70 q 529 11 613 12 l 63 11 l 63 300 "},"B":{"x_min":78,"x_max":805,"ha":875,"o":"m 429 967 q 563 954 498 967 q 678 909 629 941 q 757 824 727 878 q 786 690 787 770 q 772 620 786 651 q 739 566 759 588 q 695 531 719 544 q 645 519 670 519 q 765 463 726 519 q 805 319 805 408 q 790 206 805 254 q 751 125 775 159 q 696 69 727 91 q 632 33 664 47 q 460 4 556 1 l 78 4 l 78 967 l 429 967 m 367 337 l 367 223 l 475 223 q 505 229 491 224 q 526 245 516 235 q 536 275 536 256 q 497 323 536 311 q 398 337 458 334 l 390 337 l 385 337 l 367 337 m 367 734 l 367 626 l 386 626 q 405 625 396 626 q 425 625 415 625 q 453 627 437 625 q 485 637 469 630 q 510 655 500 644 q 521 686 521 666 q 510 714 521 704 q 483 728 498 724 q 453 733 468 732 q 429 734 437 734 l 367 734 "},"…":{"x_min":104,"x_max":1330,"ha":1422,"o":"m 104 140 q 144 238 104 198 q 243 279 184 279 q 341 238 301 279 q 382 140 382 198 q 341 41 382 81 q 243 1 301 1 q 144 41 184 1 q 104 140 104 81 m 578 140 q 618 238 578 198 q 717 279 658 279 q 815 238 775 279 q 856 140 856 198 q 815 41 856 81 q 717 1 775 1 q 618 41 658 1 q 578 140 578 81 m 1052 140 q 1092 238 1052 198 q 1191 279 1132 279 q 1289 238 1249 279 q 1330 140 1330 198 q 1289 41 1330 81 q 1191 1 1249 1 q 1092 41 1132 1 q 1052 140 1052 81 "},"?":{"x_min":66.75,"x_max":688,"ha":774,"o":"m 464 318 l 232 318 q 237 380 232 354 q 254 429 243 406 q 285 477 265 451 q 334 539 305 503 q 414 688 414 635 q 375 754 414 739 q 266 770 337 770 q 176 758 218 770 q 75 722 134 746 l 66 949 q 359 988 204 988 q 601 924 515 988 q 688 749 688 861 q 655 626 688 682 q 564 508 622 571 q 512 450 532 475 q 482 405 493 425 q 467 367 471 385 q 464 328 464 349 l 464 318 m 219 140 q 259 41 219 81 q 358 1 300 1 q 456 41 416 1 q 497 140 497 81 q 456 238 497 198 q 358 279 416 279 q 259 238 300 279 q 219 140 219 198 "},"H":{"x_min":53,"x_max":893,"ha":942,"o":"m 578 347 l 368 347 l 368 0 l 53 0 l 53 972 l 368 972 l 368 625 l 578 625 l 578 972 l 893 972 l 893 0 l 578 0 l 578 347 "},"c":{"x_min":53,"x_max":672.203125,"ha":725,"o":"m 537 0 q 348 37 437 0 q 194 141 259 75 q 91 295 129 206 q 53 483 53 383 q 91 673 53 584 q 194 828 129 762 q 348 932 259 894 q 537 971 437 971 l 669 971 l 669 693 l 551 693 q 470 676 508 693 q 404 631 431 659 q 359 564 376 602 q 343 483 343 526 q 359 402 343 440 q 404 336 376 363 q 470 291 431 308 q 551 275 508 275 l 672 275 l 672 0 l 537 0 "},"&":{"x_min":41.0625,"x_max":998.78125,"ha":1128,"o":"m 676 -33 q 647 6 664 -17 q 612 53 630 30 q 482 3 547 20 q 358 -13 416 -13 q 237 3 293 -13 q 140 53 182 20 q 72 134 98 85 q 42 246 46 182 q 52 359 37 312 q 95 442 66 406 q 166 503 125 477 q 256 553 208 530 q 216 615 234 591 q 186 657 198 638 q 167 694 173 676 q 161 741 161 712 q 187 863 161 815 q 262 938 213 910 q 377 975 311 965 q 526 986 444 986 q 680 966 615 986 q 788 911 745 947 q 850 827 830 876 q 871 720 871 778 q 844 649 871 690 q 782 563 818 608 q 709 476 747 519 q 651 398 672 433 q 671 396 655 392 q 706 406 686 399 q 749 422 726 413 q 792 438 772 431 q 827 448 812 445 q 847 445 843 451 l 958 406 q 935 374 954 399 q 895 321 916 349 q 857 267 875 292 q 833 235 839 242 q 877 168 852 206 q 927 93 902 130 q 971 27 951 56 q 998 -13 990 -1 l 676 -33 m 253 243 q 286 162 253 195 q 366 129 319 129 q 447 162 414 129 q 480 243 480 195 q 447 323 480 290 q 366 357 414 357 q 286 323 319 357 q 253 243 253 290 m 426 708 q 455 637 426 666 q 526 608 484 608 q 597 637 568 608 q 627 708 627 666 q 597 778 627 749 q 526 808 568 808 q 455 778 484 808 q 426 708 426 749 "},"−":{"x_min":90.28125,"x_max":902.84375,"ha":988,"o":"m 902 493 l 902 336 l 90 336 l 90 493 l 902 493 "},"I":{"x_min":53,"x_max":368,"ha":424,"o":"m 53 972 l 368 972 l 368 0 l 53 0 l 53 972 "},"•":{"x_min":97,"x_max":444,"ha":541,"o":"m 97 441 q 110 508 97 477 q 148 563 124 540 q 203 601 171 587 q 270 615 234 615 q 337 601 306 615 q 392 563 369 587 q 430 508 416 540 q 444 441 444 477 q 430 374 444 405 q 392 319 416 342 q 337 281 369 295 q 270 268 306 268 q 203 281 234 268 q 148 319 171 295 q 110 374 124 342 q 97 441 97 405 "},"G":{"x_min":53,"x_max":825,"ha":874,"o":"m 537 0 q 348 37 437 0 q 194 141 259 75 q 91 295 129 206 q 53 483 53 383 q 91 673 53 584 q 194 828 129 762 q 349 932 260 894 q 538 971 438 971 l 670 971 l 670 693 l 552 693 q 470 676 508 693 q 404 631 432 659 q 359 564 376 602 q 343 483 343 526 q 359 402 343 440 q 404 336 376 363 q 472 291 433 308 q 556 275 511 275 l 556 486 l 825 486 l 825 0 l 537 0 "},"(":{"x_min":95,"x_max":571.0625,"ha":661,"o":"m 321 1049 l 571 1049 q 378 432 378 755 q 425 116 378 268 q 571 -183 473 -35 l 321 -183 q 95 432 95 93 q 321 1049 95 772 "},"`":{"x_min":55.5625,"x_max":459.765625,"ha":510,"o":"m 55 1075 l 301 1075 l 459 847 l 213 847 l 55 1075 "},"U":{"x_min":69,"x_max":953.390625,"ha":1158,"o":"m 952 506 q 920 310 952 402 q 831 151 889 219 q 690 43 774 83 q 502 4 607 4 q 317 43 398 4 q 181 151 237 83 q 97 310 126 219 q 69 506 69 402 l 69 972 l 376 972 l 376 503 q 384 382 376 430 q 409 306 392 334 q 449 265 426 277 q 501 254 472 254 q 558 265 531 254 q 603 306 584 277 q 632 382 622 334 q 642 503 643 430 l 644 972 l 953 972 l 952 506 "},"F":{"x_min":68,"x_max":697.03125,"ha":774,"o":"m 347 693 l 347 625 l 697 625 l 697 347 l 347 347 l 346 0 l 68 1 l 68 972 l 697 971 l 697 693 l 347 693 "},"r":{"x_min":78,"x_max":829.0625,"ha":875,"o":"m 367 440 l 367 4 l 78 4 l 78 967 l 429 967 q 563 954 498 967 q 678 910 629 942 q 757 824 727 878 q 786 690 787 771 q 769 616 786 654 q 726 544 752 578 q 668 487 699 511 q 605 453 636 462 l 829 3 l 583 3 l 367 440 m 367 734 l 367 627 l 386 627 q 405 626 396 627 q 425 625 415 625 q 453 628 437 625 q 484 638 469 631 q 510 656 500 645 q 521 686 521 667 q 509 714 521 704 q 483 728 498 724 q 453 733 468 732 q 429 734 437 734 l 367 734 "},":":{"x_min":104,"x_max":382,"ha":474,"o":"m 104 140 q 144 238 104 198 q 243 279 184 279 q 341 238 301 279 q 382 140 382 198 q 341 41 382 81 q 243 1 301 1 q 144 41 184 1 q 104 140 104 81 m 104 619 q 144 717 104 677 q 243 758 184 758 q 341 717 301 758 q 382 619 382 677 q 341 520 382 560 q 243 480 301 480 q 144 520 184 480 q 104 619 104 560 "},"x":{"x_min":51.390625,"x_max":1091.75,"ha":1174,"o":"m 365 487 l 51 974 l 461 974 l 569 805 l 676 974 l 1082 974 l 773 490 l 1091 0 l 682 0 l 570 170 l 461 0 l 55 0 l 365 487 "},"*":{"x_min":44.453125,"x_max":650.046875,"ha":713,"o":"m 261 1040 l 433 1040 l 386 802 l 598 919 l 650 758 l 409 727 l 586 561 l 450 463 l 347 686 l 244 463 l 108 561 l 284 727 l 44 758 l 95 919 l 309 802 l 261 1040 "},"†":{"x_min":36.140625,"x_max":653.234375,"ha":695,"o":"m 232 1013 l 456 1013 l 456 754 l 653 754 l 653 593 l 456 593 l 456 -133 l 232 -133 l 232 593 l 36 593 l 36 754 l 232 754 l 232 1013 "},"V":{"x_min":27.78125,"x_max":1050.078125,"ha":1090,"o":"m 27 972 l 355 972 l 538 629 l 722 972 l 1050 972 l 541 0 l 27 972 "},"h":{"x_min":53,"x_max":893,"ha":942,"o":"m 578 347 l 368 347 l 368 0 l 53 0 l 53 972 l 368 972 l 368 625 l 578 625 l 578 972 l 893 972 l 893 0 l 578 0 l 578 347 "},"0":{"x_min":38,"x_max":1055,"ha":1099,"o":"m 38 488 q 78 676 38 588 q 187 830 118 765 q 348 933 256 895 q 545 972 440 972 q 743 933 650 972 q 905 830 836 895 q 1014 676 974 765 q 1055 488 1055 588 q 1014 299 1055 388 q 905 145 974 210 q 743 42 836 80 q 545 4 650 4 q 348 42 440 4 q 187 145 256 80 q 78 299 118 210 q 38 488 38 388 m 335 489 q 351 405 335 444 q 397 337 368 366 q 465 291 426 308 q 548 275 504 275 q 630 291 593 275 q 693 337 667 308 q 734 405 719 366 q 749 489 749 444 q 734 572 749 533 q 693 640 719 611 q 630 686 667 669 q 548 703 593 703 q 465 686 504 703 q 397 640 426 669 q 351 572 368 611 q 335 489 335 533 "},".":{"x_min":104,"x_max":382,"ha":474,"o":"m 104 140 q 144 238 104 198 q 243 279 184 279 q 341 238 301 279 q 382 140 382 198 q 341 41 382 81 q 243 1 301 1 q 144 41 184 1 q 104 140 104 81 "},"”":{"x_min":55.5625,"x_max":787.5625,"ha":856,"o":"m 629 594 l 383 594 l 541 975 l 787 975 l 629 594 m 301 594 l 55 594 l 213 975 l 459 975 l 301 594 "},"@":{"x_min":92,"x_max":1290,"ha":1350,"o":"m 700 727 l 982 186 l 983 186 q 1116 265 1068 198 q 1164 441 1164 333 q 1126 609 1164 533 q 1026 738 1088 684 q 882 820 963 791 q 713 850 801 850 q 514 811 605 850 q 357 707 423 773 q 254 554 291 641 q 218 368 218 466 q 255 178 218 266 q 358 25 293 90 q 511 -76 423 -38 q 702 -114 599 -114 q 872 -82 787 -114 q 1019 4 956 -50 l 1091 -105 q 907 -207 1006 -172 q 704 -242 808 -242 q 464 -195 576 -242 q 270 -67 352 -148 q 139 126 187 14 q 92 367 92 237 q 139 605 92 494 q 271 798 187 716 q 465 928 354 881 q 704 976 576 976 q 928 937 822 976 q 1115 828 1034 898 q 1242 660 1195 758 q 1290 444 1290 562 q 1181 156 1290 256 q 868 56 1072 56 l 841 56 l 805 155 l 698 356 l 590 155 l 397 155 l 700 727 "},"f":{"x_min":68,"x_max":697.03125,"ha":774,"o":"m 347 693 l 347 625 l 697 625 l 697 347 l 347 347 l 346 0 l 68 1 l 68 972 l 697 971 l 697 693 l 347 693 "},";":{"x_min":34.734375,"x_max":382,"ha":474,"o":"m 104 619 q 144 717 104 677 q 243 758 184 758 q 341 717 301 758 q 382 619 382 677 q 341 520 382 560 q 243 480 301 480 q 144 520 184 480 q 104 619 104 560 m 123 219 l 368 219 l 231 -151 l 34 -151 l 123 219 "},"“":{"x_min":55.5625,"x_max":787.5625,"ha":856,"o":"m 55 975 l 301 975 l 459 594 l 213 594 l 55 975 m 383 975 l 629 975 l 787 594 l 541 594 l 383 975 "},"i":{"x_min":53,"x_max":368,"ha":424,"o":"m 53 972 l 368 972 l 368 0 l 53 0 l 53 972 "},"6":{"x_min":60,"x_max":693,"ha":875,"o":"m 364 206 q 435 226 404 206 q 467 292 467 247 q 459 331 467 310 q 439 369 451 351 q 409 397 426 386 q 372 408 391 408 q 344 401 360 408 q 316 381 329 393 q 294 353 303 368 q 285 324 285 337 q 285 287 285 307 q 294 249 286 267 q 317 218 301 231 q 364 206 333 206 m 605 964 q 497 782 548 868 q 452 708 475 746 q 408 637 429 671 q 370 574 387 603 q 340 528 352 546 q 487 549 422 559 q 598 501 552 539 q 668 407 644 464 q 693 293 693 351 q 674 185 693 237 q 618 90 655 132 q 522 23 580 48 q 386 -1 465 -1 q 213 34 277 -1 q 114 120 148 69 q 70 227 80 171 q 60 326 60 283 q 60 353 60 341 q 61 372 60 364 q 64 390 62 382 l 64 389 q 87 464 69 422 q 132 552 105 505 q 190 647 158 598 q 254 741 222 696 q 423 964 330 848 l 605 964 "},"A":{"x_min":27.78125,"x_max":1050.078125,"ha":1093,"o":"m 541 972 l 1050 0 l 722 0 l 538 342 l 355 0 l 27 0 l 541 972 "},"‘":{"x_min":55.5625,"x_max":459.765625,"ha":515,"o":"m 55 975 l 301 975 l 459 594 l 213 594 l 55 975 "},"n":{"x_min":82.21875,"x_max":849.390625,"ha":941,"o":"m 82 972 l 551 572 l 551 972 l 849 975 l 848 1 l 409 345 l 413 0 l 85 0 l 82 972 "},"O":{"x_min":38,"x_max":1055,"ha":1099,"o":"m 38 488 q 78 676 38 588 q 187 830 118 765 q 348 933 256 895 q 545 972 440 972 q 743 933 650 972 q 905 830 836 895 q 1014 676 974 765 q 1055 488 1055 588 q 1014 299 1055 388 q 905 145 974 210 q 743 42 836 80 q 545 4 650 4 q 348 42 440 4 q 187 145 256 80 q 78 299 118 210 q 38 488 38 388 m 335 489 q 351 405 335 444 q 397 337 368 366 q 465 291 426 308 q 548 275 504 275 q 630 291 593 275 q 693 337 667 308 q 734 405 719 366 q 749 489 749 444 q 734 572 749 533 q 693 640 719 611 q 630 686 667 669 q 548 703 593 703 q 465 686 504 703 q 397 640 426 669 q 351 572 368 611 q 335 489 335 533 "},"3":{"x_min":112.59375,"x_max":764,"ha":876,"o":"m 112 734 l 112 967 l 387 967 q 521 954 457 967 q 635 911 586 941 q 715 827 685 880 q 745 695 745 775 q 733 624 745 656 q 701 569 721 592 q 658 533 682 546 q 608 519 633 520 q 725 461 687 516 q 764 319 764 406 q 744 193 764 245 q 695 106 725 141 q 627 50 665 70 q 553 18 590 29 q 486 5 516 8 q 437 3 455 3 l 423 3 q 419 4 420 3 l 112 4 l 112 223 l 433 223 q 444 224 434 223 q 465 234 454 225 q 486 263 476 243 q 496 321 496 284 q 481 367 496 350 q 441 392 466 384 q 380 402 415 400 q 305 405 345 405 q 206 402 254 405 q 112 406 158 399 l 112 583 l 383 583 q 414 588 395 583 q 448 603 432 594 q 477 626 465 612 q 489 659 489 640 q 479 699 489 685 q 458 722 470 714 q 431 731 445 729 q 405 734 416 734 l 387 734 l 112 734 "},"]":{"x_min":77.421875,"x_max":475,"ha":525,"o":"m 475 -183 l 77 -183 l 77 10 l 233 10 l 233 856 l 77 856 l 77 1049 l 475 1049 l 475 -183 "},"m":{"x_min":37.5,"x_max":1443.171875,"ha":1489,"o":"m 495 972 l 740 554 l 988 972 l 1443 6 l 1111 6 l 944 345 l 748 6 l 533 345 l 365 0 l 37 0 l 495 972 "},"9":{"x_min":60,"x_max":693,"ha":875,"o":"m 388 757 q 317 736 348 757 q 286 670 286 715 q 293 631 286 651 q 313 593 301 611 q 343 565 326 576 q 380 554 361 554 q 408 561 392 554 q 436 581 423 569 q 458 609 449 594 q 468 638 468 623 q 466 675 468 655 q 458 713 465 695 q 435 744 451 732 q 388 757 419 757 m 147 -1 q 255 180 204 94 q 300 254 277 217 q 343 325 322 291 q 382 388 363 360 q 412 434 400 416 q 265 413 330 403 q 154 461 200 423 q 84 555 108 498 q 60 669 60 611 q 78 777 60 725 q 134 872 97 830 q 230 939 172 914 q 366 964 287 964 q 539 928 475 964 q 638 842 604 893 q 682 735 672 791 q 693 636 693 679 q 692 609 693 621 q 690 589 691 597 q 689 572 689 579 l 689 573 q 665 498 683 540 q 620 410 647 457 q 562 315 594 364 q 498 221 530 266 q 329 -1 422 114 l 147 -1 "},"l":{"x_min":68,"x_max":699.8125,"ha":774,"o":"m 347 974 l 347 275 l 699 275 l 699 0 l 68 1 l 68 972 l 347 974 "},"8":{"x_min":188,"x_max":875,"ha":1157,"o":"m 188 311 q 198 379 188 348 q 223 431 208 409 q 254 467 237 452 q 285 488 271 481 q 258 508 272 493 q 232 546 243 523 q 213 599 221 569 q 206 663 206 630 q 231 785 206 730 q 301 880 257 841 q 405 940 346 918 q 532 962 465 962 q 658 940 598 962 q 762 880 717 918 q 832 785 806 841 q 858 663 858 730 q 847 599 858 629 q 822 546 837 569 q 792 508 808 523 q 763 487 776 493 q 806 461 785 476 q 841 427 826 447 q 865 378 856 407 q 875 311 875 350 q 847 182 875 240 q 773 82 820 124 q 664 17 726 40 q 530 -5 601 -5 q 397 17 460 -5 q 288 82 335 40 q 215 182 242 124 q 188 311 188 240 m 453 287 q 476 229 453 253 q 534 206 500 206 q 593 229 569 206 q 618 287 618 253 q 599 338 618 315 q 552 368 580 361 l 514 368 q 469 338 486 361 q 453 287 453 315 m 481 679 q 492 645 481 659 q 519 624 503 630 l 551 624 q 581 645 570 630 q 593 679 593 659 q 576 719 593 702 q 536 736 559 736 q 496 719 512 736 q 481 679 481 702 "},"p":{"x_min":78,"x_max":786.0625,"ha":875,"o":"m 429 967 q 563 954 498 967 q 678 910 629 942 q 757 824 727 878 q 786 690 787 771 q 765 607 786 650 q 713 528 744 564 q 645 471 681 493 q 575 449 608 449 l 367 449 l 367 4 l 78 4 l 78 967 l 429 967 m 367 734 l 367 626 l 386 626 q 405 625 396 626 q 425 625 415 625 q 453 627 437 625 q 484 637 469 630 q 510 655 500 644 q 521 686 521 666 q 509 714 521 704 q 483 728 498 724 q 453 733 468 732 q 429 734 437 734 l 367 734 "},"4":{"x_min":58.421875,"x_max":831.125,"ha":908,"o":"m 645 999 l 645 506 l 831 506 l 831 418 l 645 418 l 645 0 l 464 0 l 464 421 l 58 422 l 645 999 m 460 662 l 319 510 l 460 510 l 460 662 "},"‡":{"x_min":34.75,"x_max":653.234375,"ha":695,"o":"m 232 1013 l 456 1013 l 456 754 l 653 754 l 653 593 l 456 593 l 456 286 l 653 286 l 653 125 l 456 125 l 456 -133 l 232 -133 l 232 125 l 34 125 l 34 286 l 232 286 l 232 593 l 36 593 l 36 754 l 232 754 l 232 1013 "},"R":{"x_min":78,"x_max":829.0625,"ha":875,"o":"m 367 440 l 367 4 l 78 4 l 78 967 l 429 967 q 563 954 498 967 q 678 910 629 942 q 757 824 727 878 q 786 690 787 771 q 769 616 786 654 q 726 544 752 578 q 668 487 699 511 q 605 453 636 462 l 829 3 l 583 3 l 367 440 m 367 734 l 367 627 l 386 627 q 405 626 396 627 q 425 625 415 625 q 453 628 437 625 q 484 638 469 631 q 510 656 500 645 q 521 686 521 667 q 509 714 521 704 q 483 728 498 724 q 453 733 468 732 q 429 734 437 734 l 367 734 "},"o":{"x_min":38,"x_max":1055,"ha":1099,"o":"m 38 488 q 78 676 38 588 q 187 830 118 765 q 348 933 256 895 q 545 972 440 972 q 743 933 650 972 q 905 830 836 895 q 1014 676 974 765 q 1055 488 1055 588 q 1014 299 1055 388 q 905 145 974 210 q 743 42 836 80 q 545 4 650 4 q 348 42 440 4 q 187 145 256 80 q 78 299 118 210 q 38 488 38 388 m 335 489 q 351 405 335 444 q 397 337 368 366 q 465 291 426 308 q 548 275 504 275 q 630 291 593 275 q 693 337 667 308 q 734 405 719 366 q 749 489 749 444 q 734 572 749 533 q 693 640 719 611 q 630 686 667 669 q 548 703 593 703 q 465 686 504 703 q 397 640 426 669 q 351 572 368 611 q 335 489 335 533 "},"5":{"x_min":110,"x_max":764,"ha":875,"o":"m 110 971 l 758 971 l 758 796 l 331 796 l 331 586 l 478 586 q 586 578 535 587 q 677 540 637 569 q 740 458 716 511 q 764 319 764 405 q 744 193 764 245 q 695 106 725 141 q 627 50 665 71 q 553 18 590 29 q 486 5 516 8 q 437 3 455 3 l 423 3 q 419 4 421 3 l 113 4 l 113 223 l 433 223 q 444 224 434 223 q 465 234 454 225 q 486 264 476 243 q 496 321 496 284 q 470 378 496 362 q 400 401 444 395 l 110 401 l 110 971 "}}}
